<svg width="104" height="104" viewBox="0 0 104 104" fill="none" xmlns="http://www.w3.org/2000/svg">
<rect width="104" height="104" rx="52" transform="matrix(1 0 0 -1 0 104)" fill="#F7F8FA"/>
<path d="M56.6552 48.2031C56.4231 48.2031 56.2006 48.111 56.0365 47.9469C55.8724 47.7828 55.7802 47.5602 55.7802 47.3281C55.7919 47.099 55.7568 46.8698 55.6771 46.6546C55.5975 46.4394 55.4749 46.2427 55.3168 46.0763C55.1587 45.91 54.9684 45.7776 54.7576 45.687C54.5467 45.5965 54.3196 45.5499 54.0901 45.5499C53.8607 45.5499 53.6336 45.5965 53.4227 45.687C53.2119 45.7776 53.0216 45.91 52.8635 46.0763C52.7054 46.2427 52.5828 46.4394 52.5032 46.6546C52.4235 46.8698 52.3884 47.099 52.4001 47.3281C52.4001 47.5602 52.3079 47.7828 52.1438 47.9469C51.9797 48.111 51.7571 48.2031 51.5251 48.2031C51.293 48.2031 51.0705 48.111 50.9064 47.9469C50.7423 47.7828 50.6501 47.5602 50.6501 47.3281C50.6385 46.8691 50.7189 46.4124 50.8866 45.9849C51.0543 45.5574 51.3058 45.1678 51.6264 44.839C51.947 44.5102 52.3301 44.2489 52.7533 44.0705C53.1764 43.8921 53.6309 43.8002 54.0901 43.8002C54.5493 43.8002 55.0039 43.8921 55.427 44.0705C55.8502 44.2489 56.2333 44.5102 56.5539 44.839C56.8745 45.1678 57.126 45.5574 57.2937 45.9849C57.4614 46.4124 57.5418 46.8691 57.5302 47.3281C57.5302 47.5602 57.438 47.7828 57.2739 47.9469C57.1098 48.111 56.8873 48.2031 56.6552 48.2031Z" fill="#828D15"/>
<path d="M56.6552 58.6664C56.4231 58.6664 56.2006 58.5742 56.0365 58.4101C55.8724 58.246 55.7802 58.0235 55.7802 57.7914V47.3282C55.7802 47.0961 55.8724 46.8735 56.0365 46.7094C56.2006 46.5453 56.4231 46.4532 56.6552 46.4532C56.8873 46.4532 57.1098 46.5453 57.2739 46.7094C57.438 46.8735 57.5302 47.0961 57.5302 47.3282V57.7914C57.5302 58.0235 57.438 58.246 57.2739 58.4101C57.1098 58.5742 56.8873 58.6664 56.6552 58.6664Z" fill="#828D15"/>
<path d="M61.7853 50.7774C61.5533 50.7774 61.3307 50.6852 61.1666 50.5211C61.0025 50.357 60.9103 50.1345 60.9103 49.9024C60.922 49.6732 60.8869 49.4441 60.8073 49.2289C60.7276 49.0137 60.605 48.8169 60.4469 48.6506C60.2888 48.4842 60.0986 48.3518 59.8877 48.2613C59.6768 48.1708 59.4497 48.1241 59.2203 48.1241C58.9908 48.1241 58.7637 48.1708 58.5529 48.2613C58.342 48.3518 58.1517 48.4842 57.9936 48.6506C57.8355 48.8169 57.7129 49.0137 57.6333 49.2289C57.5536 49.4441 57.5185 49.6732 57.5302 49.9024C57.5302 50.1345 57.438 50.357 57.2739 50.5211C57.1098 50.6852 56.8873 50.7774 56.6552 50.7774C56.4231 50.7774 56.2006 50.6852 56.0365 50.5211C55.8724 50.357 55.7802 50.1345 55.7802 49.9024C55.7686 49.4433 55.849 48.9866 56.0167 48.5591C56.1844 48.1316 56.4359 47.742 56.7565 47.4132C57.0771 47.0845 57.4603 46.8232 57.8834 46.6448C58.3065 46.4664 58.7611 46.3745 59.2203 46.3745C59.6795 46.3745 60.134 46.4664 60.5572 46.6448C60.9803 46.8232 61.3634 47.0845 61.684 47.4132C62.0046 47.742 62.2561 48.1316 62.4238 48.5591C62.5915 48.9866 62.6719 49.4433 62.6603 49.9024C62.6603 50.1345 62.5681 50.357 62.4041 50.5211C62.24 50.6852 62.0174 50.7774 61.7853 50.7774Z" fill="#828D15"/>
<path d="M61.7853 58.6664C61.5533 58.6664 61.3307 58.5742 61.1666 58.4101C61.0025 58.246 60.9103 58.0235 60.9103 57.7914V49.9024C60.9103 49.6703 61.0025 49.4478 61.1666 49.2837C61.3307 49.1196 61.5533 49.0274 61.7853 49.0274C62.0174 49.0274 62.24 49.1196 62.4041 49.2837C62.5682 49.4478 62.6603 49.6703 62.6603 49.9024V57.7914C62.6603 58.0235 62.5682 58.246 62.4041 58.4101C62.24 58.5742 62.0174 58.6664 61.7853 58.6664Z" fill="#828D15"/>
<path d="M66.9157 52.5066C66.6836 52.5066 66.4611 52.4144 66.297 52.2503C66.1329 52.0862 66.0407 51.8637 66.0407 51.6316C66.0521 51.4026 66.0168 51.1737 65.9369 50.9587C65.8571 50.7438 65.7345 50.5473 65.5764 50.3812C65.4183 50.2151 65.2282 50.0828 65.0174 49.9925C64.8067 49.9021 64.5798 49.8555 64.3505 49.8555C64.1212 49.8555 63.8943 49.9021 63.6836 49.9925C63.4729 50.0828 63.2827 50.2151 63.1246 50.3812C62.9666 50.5473 62.8439 50.7438 62.7641 50.9587C62.6843 51.1737 62.649 51.4026 62.6603 51.6316C62.6603 51.8637 62.5682 52.0862 62.4041 52.2503C62.24 52.4144 62.0174 52.5066 61.7853 52.5066C61.5533 52.5066 61.3307 52.4144 61.1666 52.2503C61.0025 52.0862 60.9103 51.8637 60.9103 51.6316C60.8994 51.1729 60.9802 50.7167 61.1482 50.2897C61.3161 49.8627 61.5678 49.4736 61.8883 49.1453C62.2089 48.817 62.5918 48.5561 63.0147 48.378C63.4375 48.1999 63.8917 48.1082 64.3505 48.1082C64.8093 48.1082 65.2635 48.1999 65.6864 48.378C66.1092 48.5561 66.4922 48.817 66.8127 49.1453C67.1332 49.4736 67.3849 49.8627 67.5528 50.2897C67.7208 50.7167 67.8017 51.1729 67.7907 51.6316C67.7907 51.8637 67.6985 52.0862 67.5344 52.2503C67.3703 52.4144 67.1478 52.5066 66.9157 52.5066Z" fill="#828D15"/>
<path d="M64.7781 79.1016C64.546 79.1016 64.3235 79.0094 64.1594 78.8453C63.9953 78.6812 63.9031 78.4587 63.9031 78.2266V76.2115C63.903 76.0714 63.9366 75.9333 64.0011 75.809L66.0407 71.8715V51.6318C66.0407 51.3998 66.1329 51.1772 66.297 51.0131C66.4611 50.849 66.6836 50.7568 66.9157 50.7568C67.1478 50.7568 67.3703 50.849 67.5344 51.0131C67.6985 51.1772 67.7907 51.3998 67.7907 51.6318V72.085C67.7907 72.2251 67.757 72.3631 67.6925 72.4875L65.6531 76.425V78.227C65.653 78.459 65.5607 78.6815 65.3966 78.8455C65.2326 79.0095 65.0101 79.1016 64.7781 79.1016Z" fill="#828D15"/>
<path d="M46.1977 79.1016C45.9656 79.1016 45.743 79.0094 45.579 78.8453C45.4149 78.6812 45.3227 78.4587 45.3227 78.2266V76.0188L41.49 71.7249C41.4163 71.6423 41.359 71.5465 41.3211 71.4425L36.3979 57.9699C36.3931 57.957 36.3887 57.9441 36.3845 57.931C36.3257 57.7426 35.8361 56.0589 36.8045 54.9619C37.4249 54.2595 38.4148 54.0261 39.7435 54.2667C42.2696 54.7243 44.353 57.7063 45.5198 59.7792V38.7676C45.5088 38.3089 45.5897 37.8526 45.7576 37.4257C45.9256 36.9987 46.1772 36.6096 46.4977 36.2813C46.8183 35.953 47.2012 35.6921 47.6241 35.514C48.0469 35.3359 48.5011 35.2441 48.9599 35.2441C49.4188 35.2441 49.873 35.3359 50.2958 35.514C50.7186 35.6921 51.1016 35.953 51.4221 36.2813C51.7427 36.6096 51.9943 36.9987 52.1623 37.4257C52.3302 37.8526 52.4111 38.3089 52.4001 38.7676V57.7914C52.4001 58.0235 52.3079 58.246 52.1438 58.4101C51.9797 58.5742 51.7572 58.6664 51.5251 58.6664C51.293 58.6664 51.0705 58.5742 50.9064 58.4101C50.7423 58.246 50.6501 58.0235 50.6501 57.7914V38.7676C50.6615 38.5386 50.6262 38.3097 50.5464 38.0947C50.4665 37.8798 50.3439 37.6833 50.1858 37.5172C50.0278 37.3511 49.8376 37.2188 49.6269 37.1285C49.4161 37.0381 49.1892 36.9915 48.9599 36.9915C48.7306 36.9915 48.5037 37.0381 48.293 37.1285C48.0823 37.2188 47.8921 37.3511 47.734 37.5172C47.576 37.6833 47.4533 37.8798 47.3735 38.0947C47.2937 38.3097 47.2584 38.5386 47.2698 38.7676V61.107C47.2698 61.2871 47.2143 61.4628 47.1107 61.6101L46.4204 62.5945C46.3311 62.7217 46.2095 62.8228 46.0682 62.8875C45.9269 62.9521 45.771 62.978 45.6164 62.9624C45.4618 62.9468 45.3141 62.8903 45.1885 62.7988C45.063 62.7072 44.9641 62.5838 44.902 62.4414C44.1836 60.7924 41.8001 56.4192 39.4315 55.99C38.7753 55.8712 38.2955 55.9189 38.1164 56.1213C37.881 56.3879 37.9567 57.0796 38.0508 57.3922L42.9083 70.6854L46.8515 75.1028C46.9946 75.2633 47.0737 75.4707 47.0738 75.6856V78.2277C47.0736 78.3426 47.0508 78.4564 47.0067 78.5625C46.9626 78.6686 46.8981 78.7649 46.8167 78.8461C46.7354 78.9272 46.6388 78.9916 46.5326 79.0354C46.4264 79.0793 46.3126 79.1017 46.1977 79.1016Z" fill="#828D15"/>
<path d="M48.9594 31.5388C48.7273 31.5388 48.5048 31.4466 48.3407 31.2825C48.1766 31.1184 48.0844 30.8958 48.0844 30.6638V25.7734C48.0844 25.5413 48.1766 25.3188 48.3407 25.1547C48.5048 24.9906 48.7273 24.8984 48.9594 24.8984C49.1914 24.8984 49.414 24.9906 49.5781 25.1547C49.7422 25.3188 49.8344 25.5413 49.8344 25.7734V30.6638C49.8344 30.8958 49.7422 31.1184 49.5781 31.2825C49.414 31.4466 49.1914 31.5388 48.9594 31.5388Z" fill="#828D15"/>
<path d="M45.1052 33.1354C44.9903 33.1355 44.8765 33.113 44.7703 33.069C44.6642 33.025 44.5677 32.9604 44.4866 32.8791L41.0288 29.4213C40.8694 29.2563 40.7811 29.0353 40.783 28.8059C40.7849 28.5765 40.8768 28.357 41.039 28.1947C41.2012 28.0324 41.4206 27.9403 41.65 27.9382C41.8795 27.9361 42.1005 28.0243 42.2656 28.1836L45.724 31.6416C45.8465 31.764 45.9298 31.9199 45.9636 32.0897C45.9974 32.2594 45.9801 32.4354 45.9138 32.5953C45.8476 32.7552 45.7354 32.8919 45.5915 32.988C45.4475 33.0842 45.2783 33.1355 45.1052 33.1354Z" fill="#828D15"/>
<path d="M43.5088 36.99H38.6184C38.3863 36.99 38.1638 36.8978 37.9997 36.7337C37.8356 36.5696 37.7434 36.3471 37.7434 36.115C37.7434 35.883 37.8356 35.6604 37.9997 35.4963C38.1638 35.3322 38.3863 35.24 38.6184 35.24H43.5088C43.7408 35.24 43.9634 35.3322 44.1275 35.4963C44.2916 35.6604 44.3838 35.883 44.3838 36.115C44.3838 36.3471 44.2916 36.5696 44.1275 36.7337C43.9634 36.8978 43.7408 36.99 43.5088 36.99Z" fill="#828D15"/>
<path d="M59.3017 36.99H54.4111C54.179 36.99 53.9564 36.8978 53.7924 36.7337C53.6283 36.5696 53.5361 36.3471 53.5361 36.115C53.5361 35.883 53.6283 35.6604 53.7924 35.4963C53.9564 35.3322 54.179 35.24 54.4111 35.24H59.3017C59.5337 35.24 59.7563 35.3322 59.9204 35.4963C60.0845 35.6604 60.1767 35.883 60.1767 36.115C60.1767 36.3471 60.0845 36.5696 59.9204 36.7337C59.7563 36.8978 59.5337 36.99 59.3017 36.99Z" fill="#828D15"/>
<path d="M52.8146 33.1355C52.6416 33.1355 52.4724 33.0841 52.3285 32.988C52.1846 32.8918 52.0724 32.7551 52.0062 32.5952C51.94 32.4353 51.9227 32.2594 51.9564 32.0896C51.9902 31.9199 52.0736 31.764 52.196 31.6416L55.6531 28.1836C55.8173 28.0195 56.0398 27.9274 56.2719 27.9274C56.504 27.9275 56.7265 28.0197 56.8906 28.1838C57.0547 28.348 57.1468 28.5705 57.1468 28.8026C57.1467 29.0347 57.0545 29.2572 56.8904 29.4213L53.4333 32.8791C53.3521 32.9605 53.2557 33.025 53.1495 33.069C53.0434 33.113 52.9296 33.1356 52.8146 33.1355Z" fill="#828D15"/>
</svg>
