<svg width="104" height="104" viewBox="0 0 104 104" fill="none" xmlns="http://www.w3.org/2000/svg">
<rect width="104" height="104" rx="52" transform="matrix(1 0 0 -1 0 104)" fill="#F7F8FA"/>
<mask id="mask0_68_1375" style="mask-type:luminance" maskUnits="userSpaceOnUse" x="24" y="24" width="56" height="56">
<path d="M24 24H80V80H24V24Z" fill="white"/>
</mask>
<g mask="url(#mask0_68_1375)">
<path d="M51.9097 55.7397L51.6112 55.5632C49.8947 54.578 49.0919 54.3959 47.5434 54.9946L45.8554 55.647C44.8282 56.0442 43.6757 55.9483 42.7283 55.387L41.6846 54.7716" stroke="#828D15" stroke-width="1.4" stroke-miterlimit="10" stroke-linecap="round" stroke-linejoin="round"/>
<path d="M35.2178 65.5746L36.9668 66.6069" stroke="#828D15" stroke-width="1.4" stroke-miterlimit="10" stroke-linecap="round" stroke-linejoin="round"/>
<path d="M49.9036 76.8793L52.704 78.5383C53.6859 79.12 54.9537 78.7956 55.5355 77.8136C56.1173 76.8315 55.7928 75.5638 54.8107 74.9819L57.1351 76.359C58.1171 76.9407 59.3849 76.6164 59.9667 75.6343C60.5484 74.6523 60.2239 73.3845 59.242 72.8028L60.7915 73.7207C61.7734 74.3025 63.0412 73.9782 63.6231 72.9961V72.996C64.2048 72.0141 63.8803 70.7464 62.8984 70.1645L64.7946 71.288C65.7767 71.8697 67.0442 71.5453 67.626 70.5634C68.2078 69.5814 67.8833 68.3138 66.9013 67.732" stroke="#828D15" stroke-width="1.4" stroke-miterlimit="10" stroke-linecap="round" stroke-linejoin="round"/>
<path d="M62.5635 55.2455L62.3201 55.3869C61.3727 55.9482 60.2202 56.044 59.1932 55.647L57.2896 54.8992C56.6943 54.6652 56.0405 54.6239 55.4204 54.7808L52.504 55.5189C51.1463 55.8626 50.1953 57.0843 50.1953 58.4846V62.3778C50.1953 62.9283 50.6413 63.376 51.1918 63.3764C52.8517 63.3775 54.1978 62.0322 54.1978 60.3724V60.2076L66.6812 67.6003C66.9125 67.3538 67.1776 67.1409 67.4693 66.9681L69.0839 66.0247" stroke="#828D15" stroke-width="1.4" stroke-miterlimit="10" stroke-linecap="round" stroke-linejoin="round"/>
<path d="M38.9419 70.892C38.2765 71.8189 36.9855 72.0309 36.0586 71.3653C35.1316 70.6999 34.9197 69.409 35.5852 68.4821L36.7555 66.8519C37.421 65.9249 38.7119 65.7128 39.6389 66.3783C40.5658 67.0438 40.7778 68.3348 40.1124 69.2617" stroke="#828D15" stroke-width="1.4" stroke-miterlimit="10" stroke-linecap="round" stroke-linejoin="round"/>
<path d="M44.7627 69.8725L42.3006 73.3019C41.6352 74.2288 40.3444 74.4408 39.4173 73.7754C38.4903 73.1099 38.2784 71.819 38.9439 70.892L41.406 67.4627C42.0714 66.5356 43.3622 66.3238 44.2892 66.9892C45.2161 67.6546 45.4281 68.9455 44.7627 69.8725Z" stroke="#828D15" stroke-width="1.4" stroke-miterlimit="10" stroke-linecap="round" stroke-linejoin="round"/>
<path d="M44.7623 69.8725C45.4278 68.9454 46.7187 68.7336 47.6457 69.399C48.5726 70.0645 48.7846 71.3554 48.119 72.2824L45.6571 75.7117C44.9917 76.6387 43.7007 76.8506 42.7738 76.1852C41.8468 75.5198 41.6348 74.2288 42.3003 73.3018" stroke="#828D15" stroke-width="1.4" stroke-miterlimit="10" stroke-linecap="round" stroke-linejoin="round"/>
<path d="M47.0269 73.8062C47.6923 72.8792 48.9832 72.6672 49.9102 73.3327C50.8371 73.9982 51.0491 75.2891 50.3836 76.216L49.565 77.3565C48.8995 78.2834 47.6085 78.4953 46.6817 77.8298C45.7547 77.1644 45.5427 75.8734 46.2082 74.9466" stroke="#828D15" stroke-width="1.4" stroke-miterlimit="10" stroke-linecap="round" stroke-linejoin="round"/>
<path d="M47.9417 29.1821V27.0619C47.9417 26.0187 48.7871 25.173 49.8303 25.173H54.1647C55.2079 25.173 56.0532 26.0187 56.0532 27.0619V29.1821" stroke="#828D15" stroke-width="1.4" stroke-miterlimit="10" stroke-linecap="round" stroke-linejoin="round"/>
<path d="M45.8978 34.8068V38.2521" stroke="#828D15" stroke-width="1.4" stroke-miterlimit="10" stroke-linecap="round" stroke-linejoin="round"/>
<path d="M58.0999 34.8068V38.2521" stroke="#828D15" stroke-width="1.4" stroke-miterlimit="10" stroke-linecap="round" stroke-linejoin="round"/>
<path d="M76.4498 63.8901L78.0006 62.9657C78.7318 62.5298 79.1796 61.7413 79.1796 60.8902V44.4651C79.1796 43.7432 78.3931 43.2964 77.773 43.666L63.0588 52.4367C62.2317 52.9298 61.9594 53.9993 62.4503 54.828L69.1786 66.1849C69.6712 67.0167 70.7457 67.2901 71.5761 66.7952L73.1293 65.8694" stroke="#828D15" stroke-width="1.4" stroke-miterlimit="10" stroke-linecap="round" stroke-linejoin="round"/>
<path d="M26.227 43.666L40.9411 52.4367C41.7684 52.9297 42.0406 53.9994 41.5497 54.828L34.8215 66.185C34.3287 67.0167 33.2542 67.2901 32.4238 66.7952L25.9994 62.9657C25.2682 62.5299 24.8203 61.7414 24.8203 60.8903V44.4652C24.8203 43.7432 25.6069 43.2964 26.227 43.666Z" stroke="#828D15" stroke-width="1.4" stroke-miterlimit="10" stroke-linecap="round" stroke-linejoin="round"/>
<path d="M40.3265 37.6137V31.4499C40.3265 30.1973 41.3418 29.1821 42.5941 29.1821H61.4006C62.653 29.1821 63.6684 30.1973 63.6684 31.4499V42.6391C63.6684 43.8915 62.653 44.9069 61.4006 44.9069H42.5941C41.3418 44.9069 40.3265 43.8915 40.3265 42.6391V41.4488" stroke="#828D15" stroke-width="1.4" stroke-miterlimit="10" stroke-linecap="round" stroke-linejoin="round"/>
<path d="M40.3265 32.4203C40.3265 34.6897 42.1662 36.5294 44.4356 36.5294H59.5591C61.8285 36.5294 63.6684 34.6897 63.6684 32.4203" stroke="#828D15" stroke-width="1.4" stroke-miterlimit="10" stroke-linecap="round" stroke-linejoin="round"/>
</g>
<path d="M72.2408 85.7338L61.3281 79.2688" stroke="#828D15" stroke-width="1.4" stroke-miterlimit="10" stroke-linecap="round" stroke-linejoin="round"/>
<path d="M65.4507 90.6334L57.4102 85.8699" stroke="#828D15" stroke-width="1.4" stroke-miterlimit="10" stroke-linecap="round" stroke-linejoin="round"/>
<path d="M57.2251 94.6806L54.0742 92.8141" stroke="#828D15" stroke-width="1.4" stroke-miterlimit="10" stroke-linecap="round" stroke-linejoin="round"/>
</svg>
