<svg width="33" height="34" viewBox="0 0 33 34" fill="none" xmlns="http://www.w3.org/2000/svg">
<circle cx="16.4999" cy="17" r="15.1606" fill="white" stroke="#828D15" stroke-width="2"/>
<circle cx="16.5001" cy="17" r="11.4312" fill="white" stroke="#828D15" stroke-width="2"/>
<mask id="mask0_1883_6694" style="mask-type:alpha" maskUnits="userSpaceOnUse" x="4" y="4" width="25" height="26">
<circle cx="16.5001" cy="17" r="11.4312" fill="white" stroke="#828D15" stroke-width="2"/>
</mask>
<g mask="url(#mask0_1883_6694)">
<path d="M16.4998 9.54128C13.3581 9.54128 10.8124 12.0232 10.8124 15.0837C10.814 16.7735 11.6792 18.29 12.9711 19.4213C13.7663 20.1173 13.3513 20.8696 12.6891 21.0311C9.52912 21.7936 7.17676 24.1451 7.17676 27.4996V28.2166C7.17676 28.9931 7.27936 29.4312 8.4239 29.4312H24.5764C25.7226 29.4312 25.8236 28.9931 25.8236 28.2166V27.4996C25.8236 24.1451 23.4699 21.7923 20.3096 21.03C19.6547 20.8715 19.2351 20.1194 20.0134 19.4393C21.3109 18.3025 22.1877 16.7829 22.1888 15.084C22.1888 12.0232 19.642 9.54128 16.4998 9.54128Z" fill="#828D15"/>
</g>
</svg>
