<svg width="29" height="28" viewBox="0 0 29 28" fill="none" xmlns="http://www.w3.org/2000/svg">
<g clip-path="url(#clip0_1883_6689)">
<path d="M14.5 0C6.78017 0 0.5 6.28017 0.5 14C0.5 21.7198 6.78017 28 14.5 28H28.5V14C28.5 6.28017 22.2198 0 14.5 0ZM15.6667 22.1667H13.3333V19.8333H15.6667V22.1667ZM16.7493 14.5892C16.2033 14.8913 15.6667 15.9028 15.6667 16.6332V17.5H13.3333V16.6332C13.3333 15.246 14.1897 13.3373 15.6223 12.5463C16.5137 12.0552 16.9733 11.0822 16.7948 10.0672C16.6338 9.15017 15.8498 8.36617 14.9317 8.20517C14.2247 8.08033 13.5387 8.26 13.0008 8.7115C12.47 9.15717 12.1667 9.80817 12.1667 10.5H9.83333C9.83333 9.1175 10.4412 7.81433 11.5005 6.92533C12.5598 6.03633 13.961 5.67117 15.3353 5.90683C17.2172 6.237 18.763 7.78167 19.0932 9.66467C19.4408 11.6457 18.4993 13.6255 16.7493 14.5892Z" fill="#828D15"/>
</g>
<defs>
<clipPath id="clip0_1883_6689">
<rect width="28" height="28" fill="white" transform="translate(0.5)"/>
</clipPath>
</defs>
</svg>
