<svg width="17" height="17" viewBox="0 0 17 17" fill="none" xmlns="http://www.w3.org/2000/svg">
<g clip-path="url(#clip0_68_2072)">
<path d="M10.965 4.51062C10.597 4.51062 10.2983 4.21195 10.2983 3.84395V2.84395H7.63164V3.84395C7.63164 4.21195 7.33298 4.51062 6.96498 4.51062C6.59698 4.51062 6.29831 4.21195 6.29831 3.84395V2.84395C6.29831 2.10862 6.89631 1.51062 7.63164 1.51062H10.2983C11.0336 1.51062 11.6316 2.10862 11.6316 2.84395V3.84395C11.6316 4.21195 11.333 4.51062 10.965 4.51062Z" fill="#E0E0E0"/>
<path d="M9.4383 10.4306C9.3183 10.4773 9.14497 10.5106 8.96497 10.5106C8.78497 10.5106 8.61163 10.4773 8.45163 10.4173L0.964966 7.92395V13.0106C0.964966 14.024 1.78497 14.844 2.7983 14.844H15.1316C16.145 14.844 16.965 14.024 16.965 13.0106V7.92395L9.4383 10.4306Z" fill="#E0E0E0"/>
<path d="M16.965 5.34395V6.87062L9.12497 9.48395C9.07163 9.50395 9.0183 9.51062 8.96497 9.51062C8.91163 9.51062 8.8583 9.50395 8.80497 9.48395L0.964966 6.87062V5.34395C0.964966 4.33062 1.78497 3.51062 2.7983 3.51062H15.1316C16.145 3.51062 16.965 4.33062 16.965 5.34395Z" fill="#E0E0E0"/>
</g>
<defs>
<clipPath id="clip0_68_2072">
<rect width="16" height="16" fill="white" transform="translate(0.964966 0.177246)"/>
</clipPath>
</defs>
</svg>
