<svg width="27" height="26" viewBox="0 0 27 26" fill="none" xmlns="http://www.w3.org/2000/svg">
<g clip-path="url(#clip0_1889_8408)">
<path d="M25.8717 20.6917C25.3574 21.3092 24.5954 21.6664 23.7917 21.6667H3.20841C2.40475 21.6664 1.64273 21.3092 1.12842 20.6917L11.0626 12.415L12.0918 13.1192C12.9396 13.7042 14.0607 13.7042 14.9084 13.1192L15.9376 12.415L25.8717 20.6917Z" fill="#67700E"/>
<path d="M26.0231 5.51422L15.9374 12.415L14.9082 13.1192C14.0604 13.7042 12.9393 13.7042 12.0915 13.1192L11.0623 12.415L0.976562 5.50335C1.48407 4.77154 2.31764 4.33452 3.20824 4.33335H23.7915C24.6861 4.32863 25.5238 4.77185 26.0231 5.51422Z" fill="#BDDE8E"/>
<path d="M11.0625 12.415L1.12836 20.6917C0.721759 20.2057 0.499286 19.592 0.500048 18.9584V7.04173C0.496747 6.49213 0.663259 5.95486 0.976731 5.50342L11.0625 12.415Z" fill="#828D15"/>
<path d="M26.5 7.04172V18.9584C26.5007 19.592 26.2783 20.2057 25.8717 20.6917L15.9375 12.415L26.0233 5.51422C26.3352 5.96242 26.5016 6.49567 26.5 7.04172Z" fill="#828D15"/>
</g>
<defs>
<clipPath id="clip0_1889_8408">
<rect width="26" height="26" fill="white" transform="translate(0.5)"/>
</clipPath>
</defs>
</svg>
