<svg width="68" height="68" viewBox="0 0 68 68" fill="none" xmlns="http://www.w3.org/2000/svg">
<rect width="68" height="68" rx="34" fill="#EEEEEE"/>
<path d="M25.8605 28.4081C30.2782 21.7467 37.6902 18.5009 44.5131 19.5495C42.5956 18.0995 40.409 17.0601 38.0855 16.4941C35.762 15.9282 33.3497 15.8474 30.9947 16.2568C28.6396 16.6662 26.3906 17.5572 24.3836 18.8759C22.3766 20.1946 20.6533 21.9136 19.3179 23.9291C17.9825 25.9446 17.0627 28.2146 16.6142 30.602C16.1656 32.9893 16.1976 35.4444 16.7083 37.8188C17.2189 40.1933 18.1975 42.4377 19.585 44.4164C20.9724 46.3952 22.7399 48.0671 24.7806 49.3312C21.266 43.279 21.4427 35.0696 25.8605 28.4081Z" fill="#CFCFCF"/>
<path d="M51.7043 29.5069L51.6797 29.412C51.6306 29.2223 51.5766 29.0325 51.5177 28.8477L51.4638 28.668C51.3918 28.4416 51.3165 28.2185 51.2379 27.9988V27.9439C51.1496 27.7009 51.0563 27.4595 50.9582 27.2198L50.8944 27.075C50.8191 26.8952 50.7405 26.7155 50.6587 26.5357L50.5409 26.291C50.4722 26.1479 50.4035 26.0064 50.3348 25.8666L50.1924 25.5919L49.9813 25.2124L49.8243 24.9328L49.5985 24.5632L49.4365 24.2986L49.1469 23.8641L49.034 23.6994C47.6868 23.3698 46.3062 23.2022 44.9206 23.2C44.5574 23.2 44.1941 23.2 43.8309 23.235H43.7573C40.8704 23.4313 38.075 24.3457 35.6167 25.898C33.1584 27.4502 31.1124 29.5928 29.6584 32.1376C28.2043 34.6823 27.3868 37.5513 27.2774 40.4927C27.1681 43.434 27.7704 46.3577 29.0315 49.0068C28.9726 41.9759 33.1743 34.9649 40.282 31.4544C41.9175 30.644 43.6502 30.0548 45.436 29.7016C45.6608 32.1971 45.4464 34.7133 44.8028 37.1321C42.8394 44.7023 37.1208 50.1154 30.5679 51.6135C33.538 52.327 36.6391 52.2458 39.5692 51.3779C42.4993 50.51 45.1585 48.8849 47.2878 46.6608C49.4172 44.4368 50.944 41.6897 51.7197 38.687C52.4954 35.6844 52.4934 32.5285 51.7141 29.5269" fill="#B5B5B5"/>
</svg>
