<svg width="64" height="86" viewBox="0 0 64 86" fill="none" xmlns="http://www.w3.org/2000/svg">
<rect width="63.9531" height="86" rx="31.9766" fill="#EEEEEE"/>
<path d="M34.2241 61.8099L29.6515 57.6068L25.0678 61.8099L29.6515 70.691L34.2241 61.8099Z" fill="#BEBEBE"/>
<path d="M29.6515 20.2637C28.6882 20.7083 16 26.9119 16 36.7225C16 45.1288 23.4624 57.9402 23.4624 57.9402L29.6515 52.2619L35.8295 57.9402C35.8295 57.9402 43.2919 45.1692 43.2919 36.7225C43.2919 26.9119 30.6147 20.7083 29.6515 20.2637ZM33.7148 48.3821L29.6293 44.6135L25.5328 48.3821C25.3114 47.8669 22.6431 41.0772 22.6431 36.571C22.6431 30.5998 29.1422 27.2049 29.7069 26.9827C30.1829 27.2049 36.7706 30.5998 36.7706 36.571C36.6267 41.0772 33.903 47.8669 33.7148 48.3821Z" fill="#C4C4C4"/>
<path d="M47.9531 20.2738L43.2919 16L38.6418 20.2738L43.2919 24.5578L47.9531 20.2738Z" fill="#C4C4C4"/>
<path d="M29.9008 39.3091C30.5433 39.3151 31.1733 39.1468 31.7109 38.8257C32.2485 38.5045 32.6694 38.0449 32.9204 37.5051C33.1713 36.9653 33.241 36.3696 33.1205 35.7937C33 35.2177 32.6947 34.6874 32.2435 34.27C31.7923 33.8525 31.2154 33.5667 30.586 33.4489C29.9565 33.3311 29.3029 33.3865 28.708 33.608C28.1131 33.8296 27.6037 34.2075 27.2445 34.6936C26.8852 35.1797 26.6922 35.7523 26.69 36.3386C26.6871 36.726 26.7678 37.1102 26.9276 37.4692C27.0874 37.8281 27.3231 38.1549 27.6212 38.4307C27.9194 38.7065 28.2741 38.9261 28.6653 39.0768C29.0564 39.2275 29.4762 39.3064 29.9008 39.3091Z" fill="#C4C4C4"/>
</svg>
